<svg xmlns="http://www.w3.org/2000/svg" xmlns:xlink="http://www.w3.org/1999/xlink" viewBox="0,0,256,256" width="150px" height="150px"><g fill="#2d0d0d" fill-rule="nonzero" stroke="none" stroke-width="1" stroke-linecap="butt" stroke-linejoin="miter" stroke-miterlimit="10" stroke-dasharray="" stroke-dashoffset="0" font-family="none" font-weight="none" font-size="none" text-anchor="none" style="mix-blend-mode: normal"><path d="M0,256v-256h256v256z" id="bgRectangle"></path></g><g fill="none" fill-rule="nonzero" stroke="none" stroke-width="1" stroke-linecap="butt" stroke-linejoin="miter" stroke-miterlimit="10" stroke-dasharray="" stroke-dashoffset="0" font-family="none" font-weight="none" font-size="none" text-anchor="none" style="mix-blend-mode: normal"><g transform="scale(2.56,2.56)"><path d="M87.215,56.71c1.135,-2.155 1.785,-4.605 1.785,-7.21c0,-6.621 -4.159,-12.257 -10.001,-14.478c0,-0.007 0.001,-0.014 0.001,-0.022c0,-11.598 -9.402,-21 -21,-21c-9.784,0 -17.981,6.701 -20.313,15.757c-1.476,-0.485 -3.049,-0.757 -4.687,-0.757c-7.692,0 -14.023,5.793 -14.89,13.252c-5.204,1.101 -9.11,5.717 -9.11,11.248c0,6.351 5.149,11.5 11.5,11.5c0.177,0 0.352,-0.012 0.526,-0.022c-0.004,0.175 -0.026,0.346 -0.026,0.522c0,11.322 9.178,20.5 20.5,20.5c6.437,0 12.175,-2.972 15.934,-7.614c2.178,2.225 5.206,3.614 8.566,3.614c4.65,0 8.674,-2.65 10.666,-6.518c1.052,0.335 2.171,0.518 3.334,0.518c6.075,0 11,-4.925 11,-11c0,-3.311 -1.47,-6.273 -3.785,-8.29z" fill="#c7ede6"></path><path d="M37.875,35.5c0,0 3.64,0 6.125,0c2.485,0 4.5,-2.015 4.5,-4.5c0,-2.333 -1.782,-4.229 -4.055,-4.455c0.022,-0.181 0.055,-0.358 0.055,-0.545c0,-2.485 -2.015,-4.5 -4.5,-4.5c-1.438,0 -2.703,0.686 -3.527,1.736c-0.14,-2.636 -2.302,-4.736 -4.973,-4.736c-2.761,0 -5,2.239 -5,5c0,0.446 0.077,0.87 0.187,1.282c-0.642,-0.777 -1.601,-1.282 -2.687,-1.282c-1.781,0 -3.234,1.335 -3.455,3.055c-0.181,-0.022 -0.358,-0.055 -0.545,-0.055c-2.485,0 -4.5,2.015 -4.5,4.5c0,2.485 2.015,4.5 4.5,4.5c2.485,0 9.5,0 9.5,0h5.375v0.5h3z" fill="#6e6b42"></path><path d="M31.5,18c-3.033,0 -5.5,2.467 -5.5,5.5c0,0.016 0,0.031 0,0.047c-0.602,-0.355 -1.29,-0.547 -2,-0.547c-1.831,0 -3.411,1.261 -3.858,3.005c-0.047,-0.003 -0.094,-0.005 -0.142,-0.005c-2.757,0 -5,2.243 -5,5c0,2.757 2.243,5 5,5h14.875c0.276,0 0.5,-0.224 0.5,-0.5c0,-0.276 -0.224,-0.5 -0.5,-0.5h-14.875c-2.206,0 -4,-1.794 -4,-4c0,-2.206 1.794,-4 4,-4c0.117,0 0.23,0.017 0.343,0.032l0.141,0.019c0.021,0.003 0.041,0.004 0.062,0.004c0.246,0 0.462,-0.185 0.495,-0.437c0.191,-1.493 1.463,-2.618 2.959,-2.618c0.885,0 1.723,0.401 2.301,1.1c0.098,0.118 0.241,0.182 0.386,0.182c0.078,0 0.156,-0.018 0.228,-0.056c0.209,-0.107 0.314,-0.346 0.254,-0.573c-0.115,-0.435 -0.169,-0.801 -0.169,-1.153c0,-2.481 2.019,-4.5 4.5,-4.5c2.381,0 4.347,1.872 4.474,4.263c0.011,0.208 0.15,0.387 0.349,0.45c0.05,0.016 0.101,0.024 0.152,0.024c0.15,0 0.296,-0.069 0.392,-0.192c0.771,-0.982 1.912,-1.545 3.133,-1.545c2.206,0 4,1.794 4,4c0,0.117 -0.017,0.23 -0.032,0.343l-0.019,0.141c-0.016,0.134 0.022,0.268 0.106,0.373c0.084,0.105 0.207,0.172 0.34,0.185c2.056,0.205 3.605,1.907 3.605,3.958c0,2.206 -1.794,4 -4,4h-6.125c-0.276,0 -0.5,0.224 -0.5,0.5c0,0.276 0.224,0.5 0.5,0.5h6.125c2.757,0 5,-2.243 5,-5c0,-2.397 -1.689,-4.413 -4.003,-4.877c0.002,-0.041 0.003,-0.082 0.003,-0.123c0,-2.757 -2.243,-5 -5,-5c-1.176,0 -2.293,0.416 -3.183,1.164c-0.598,-2.404 -2.762,-4.164 -5.317,-4.164z" fill="#472b29"></path><path d="M30,25c-1.403,0 -2.609,0.999 -2.913,2.341c-0.367,-0.222 -0.786,-0.341 -1.212,-0.341c-1.202,0 -2.198,0.897 -2.353,2.068c-0.203,-0.046 -0.396,-0.068 -0.585,-0.068c-1.529,0 -2.811,1.2 -2.918,2.732c-0.009,0.138 0.095,0.258 0.232,0.268c0.006,0 0.012,0 0.018,0c0.13,0 0.24,-0.101 0.249,-0.232c0.089,-1.271 1.151,-2.268 2.419,-2.268c0.229,0 0.47,0.042 0.738,0.127c0.022,0.007 0.045,0.01 0.067,0.01c0.055,0 0.11,-0.02 0.156,-0.054c0.064,-0.046 0.102,-0.128 0.102,-0.208c0,-1.034 0.841,-1.875 1.875,-1.875c0.447,0 0.885,0.168 1.231,0.473c0.047,0.041 0.106,0.063 0.165,0.063c0.032,0 0.063,-0.006 0.093,-0.019c0.088,-0.035 0.148,-0.117 0.155,-0.212c0.104,-1.293 1.193,-2.305 2.481,-2.305c0.208,0 0.425,0.034 0.682,0.107c0.023,0.007 0.047,0.01 0.07,0.01c0.109,0 0.207,-0.073 0.239,-0.182c0.038,-0.133 -0.039,-0.271 -0.172,-0.309c-0.302,-0.086 -0.563,-0.126 -0.819,-0.126z" fill="#472b29"></path><path d="M68.625,75h-31.25c-3.521,0 -6.375,-2.854 -6.375,-6.375v-31.25c0,-3.521 2.854,-6.375 6.375,-6.375h31.25c3.521,0 6.375,2.854 6.375,6.375v31.25c0,3.521 -2.854,6.375 -6.375,6.375z" fill="#dad7bf"></path><path d="M68.625,75h-31.25c-3.521,0 -6.375,-2.854 -6.375,-6.375v-31.25c0,-3.521 2.854,-6.375 6.375,-6.375h31.25c3.521,0 6.375,2.854 6.375,6.375v31.25c0,3.521 -2.854,6.375 -6.375,6.375z" fill="#00a5a5"></path><path d="M68.625,75.7h-31.25c-3.901,0 -7.075,-3.174 -7.075,-7.075v-31.25c0,-3.901 3.174,-7.075 7.075,-7.075h31.25c3.901,0 7.075,3.174 7.075,7.075v31.25c0,3.901 -3.174,7.075 -7.075,7.075zM37.375,31.7c-3.129,0 -5.675,2.546 -5.675,5.675v31.25c0,3.129 2.546,5.675 5.675,5.675h31.25c3.129,0 5.675,-2.546 5.675,-5.675v-31.25c0,-3.129 -2.546,-5.675 -5.675,-5.675z" fill="#472b29"></path><path d="M61.5,34.5h-6.5c-0.276,0 -0.5,-0.224 -0.5,-0.5c0,-0.276 0.224,-0.5 0.5,-0.5h6.5c0.276,0 0.5,0.224 0.5,0.5c0,0.276 -0.224,0.5 -0.5,0.5z" fill="#472b29"></path><path d="M34,42.262c-0.276,0 -0.5,-0.224 -0.5,-0.5v-4.27c0,-2.201 1.942,-3.992 4.329,-3.992h13.736c0.276,0 0.5,0.224 0.5,0.5c0,0.276 -0.224,0.5 -0.5,0.5h-13.736c-1.836,0 -3.329,1.342 -3.329,2.992v4.27c0,0.276 -0.224,0.5 -0.5,0.5z" fill="#472b29"></path><path d="M72,59c-0.276,0 -0.5,-0.224 -0.5,-0.5v-21.008c0,-1.65 -1.172,-2.992 -2.611,-2.992h-3.312c-0.276,0 -0.5,-0.224 -0.5,-0.5c0,-0.276 0.224,-0.5 0.5,-0.5h3.312c1.991,0 3.611,1.791 3.611,3.992v21.008c0,0.276 -0.224,0.5 -0.5,0.5z" fill="#472b29"></path><path d="M47.625,72.5h-9.85c-2.357,0 -4.275,-1.791 -4.275,-3.992v-21.008c0,-0.276 0.224,-0.5 0.5,-0.5c0.276,0 0.5,0.224 0.5,0.5v21.008c0,1.65 1.47,2.992 3.275,2.992h9.85c0.276,0 0.5,0.224 0.5,0.5c0,0.276 -0.224,0.5 -0.5,0.5z" fill="#472b29"></path><path d="M68.225,72.5h-17.6c-0.276,0 -0.5,-0.224 -0.5,-0.5c0,-0.276 0.224,-0.5 0.5,-0.5h17.6c1.806,0 3.275,-1.342 3.275,-2.992v-6.27c0,-0.276 0.224,-0.5 0.5,-0.5c0.276,0 0.5,0.224 0.5,0.5v6.27c0,2.201 -1.918,3.992 -4.275,3.992z" fill="#472b29"></path><path d="M15.405,54h-9.905c-0.276,0 -0.5,-0.224 -0.5,-0.5c0,-0.276 0.224,-0.5 0.5,-0.5h9.905c0.276,0 0.5,0.224 0.5,0.5c0,0.276 -0.223,0.5 -0.5,0.5z" fill="#ffffff"></path><path d="M18.5,54h-1c-0.276,0 -0.5,-0.224 -0.5,-0.5c0,-0.276 0.224,-0.5 0.5,-0.5h1c0.276,0 0.5,0.224 0.5,0.5c0,0.276 -0.223,0.5 -0.5,0.5z" fill="#ffffff"></path><path d="M23.491,56h-8.991c-0.276,0 -0.5,-0.224 -0.5,-0.5c0,-0.276 0.224,-0.5 0.5,-0.5h8.991c0.276,0 0.5,0.224 0.5,0.5c0,0.276 -0.224,0.5 -0.5,0.5z" fill="#ffffff"></path><path d="M12.5,56h-1c-0.276,0 -0.5,-0.224 -0.5,-0.5c0,-0.276 0.224,-0.5 0.5,-0.5h1c0.276,0 0.5,0.224 0.5,0.5c0,0.276 -0.223,0.5 -0.5,0.5z" fill="#ffffff"></path><path d="M9.5,56h-2c-0.276,0 -0.5,-0.224 -0.5,-0.5c0,-0.276 0.224,-0.5 0.5,-0.5h2c0.276,0 0.5,0.224 0.5,0.5c0,0.276 -0.223,0.5 -0.5,0.5z" fill="#ffffff"></path><path d="M15.5,58h-2c-0.276,0 -0.5,-0.224 -0.5,-0.5c0,-0.276 0.224,-0.5 0.5,-0.5h2c0.276,0 0.5,0.224 0.5,0.5c0,0.276 -0.224,0.5 -0.5,0.5z" fill="#ffffff"></path><path d="M18.5,49c-0.177,0 -0.823,0 -1,0c-0.276,0 -0.5,0.224 -0.5,0.5c0,0.276 0.224,0.5 0.5,0.5c0.177,0 0.823,0 1,0c0.276,0 0.5,-0.224 0.5,-0.5c0,-0.276 -0.224,-0.5 -0.5,-0.5z" fill="#ffffff"></path><path d="M18.5,51c-0.177,0 -4.823,0 -5,0c-0.276,0 -0.5,0.224 -0.5,0.5c0,0.276 0.224,0.5 0.5,0.5c0.177,0 4.823,0 5,0c0.276,0 0.5,-0.224 0.5,-0.5c0,-0.276 -0.224,-0.5 -0.5,-0.5z" fill="#ffffff"></path><path d="M23.5,53c-0.177,0 -2.823,0 -3,0c-0.276,0 -0.5,0.224 -0.5,0.5c0,0.276 0.224,0.5 0.5,0.5c0.177,0 2.823,0 3,0c0.276,0 0.5,-0.224 0.5,-0.5c0,-0.276 -0.224,-0.5 -0.5,-0.5z" fill="#ffffff"></path><g fill="#ffffff"><path d="M34.5,82h-10c-0.276,0 -0.5,-0.224 -0.5,-0.5c0,-0.276 0.224,-0.5 0.5,-0.5h10c0.276,0 0.5,0.224 0.5,0.5c0,0.276 -0.224,0.5 -0.5,0.5z"></path><path d="M38.5,82h-2c-0.276,0 -0.5,-0.224 -0.5,-0.5c0,-0.276 0.224,-0.5 0.5,-0.5h2c0.276,0 0.5,0.224 0.5,0.5c0,0.276 -0.224,0.5 -0.5,0.5z"></path><path d="M43.5,84h-10c-0.276,0 -0.5,-0.224 -0.5,-0.5c0,-0.276 0.224,-0.5 0.5,-0.5h10c0.276,0 0.5,0.224 0.5,0.5c0,0.276 -0.223,0.5 -0.5,0.5z"></path><path d="M31.5,84h-1c-0.276,0 -0.5,-0.224 -0.5,-0.5c0,-0.276 0.224,-0.5 0.5,-0.5h1c0.276,0 0.5,0.224 0.5,0.5c0,0.276 -0.224,0.5 -0.5,0.5z"></path><path d="M28.375,84h-1.875c-0.276,0 -0.5,-0.224 -0.5,-0.5c0,-0.276 0.224,-0.5 0.5,-0.5h1.875c0.276,0 0.5,0.224 0.5,0.5c0,0.276 -0.224,0.5 -0.5,0.5z"></path><path d="M37.5,80h-5c-0.276,0 -0.5,-0.224 -0.5,-0.5c0,-0.276 0.224,-0.5 0.5,-0.5h5c0.276,0 0.5,0.224 0.5,0.5c0,0.276 -0.223,0.5 -0.5,0.5z"></path><path d="M34.5,86h-2c-0.276,0 -0.5,-0.224 -0.5,-0.5c0,-0.276 0.224,-0.5 0.5,-0.5h2c0.276,0 0.5,0.224 0.5,0.5c0,0.276 -0.224,0.5 -0.5,0.5z"></path></g><g><path d="M78.5,80.5c0,0 1.567,0 3.5,0c1.933,0 3.5,-1.567 3.5,-3.5c0,-1.781 -1.335,-3.234 -3.055,-3.455c0.028,-0.179 0.055,-0.358 0.055,-0.545c0,-1.933 -1.567,-3.5 -3.5,-3.5c-1.032,0 -1.95,0.455 -2.59,1.165c-0.384,-1.808 -1.987,-3.165 -3.91,-3.165c-2.209,0 -4,1.791 -4,4c0,0.191 0.03,0.374 0.056,0.558c-0.428,-0.344 -0.964,-0.558 -1.556,-0.558c-1.228,0 -2.245,0.887 -2.455,2.055c-0.179,-0.028 -0.358,-0.055 -0.545,-0.055c-1.933,0 -3.5,1.567 -3.5,3.5c0,1.933 1.567,3.5 3.5,3.5c1.933,0 7.5,0 7.5,0v0.5h7z" fill="#6e6b42"></path><path d="M80.25,76c-0.138,0 -0.25,-0.112 -0.25,-0.25c0,-1.223 0.995,-2.218 2.218,-2.218c0.034,0.009 0.737,-0.001 1.244,0.136c0.133,0.036 0.212,0.173 0.176,0.306c-0.036,0.134 -0.173,0.213 -0.306,0.176c-0.444,-0.12 -1.1,-0.12 -1.113,-0.118c-0.948,0 -1.719,0.771 -1.719,1.718c0,0.138 -0.112,0.25 -0.25,0.25z" fill="#472b29"></path><circle cx="73.5" cy="80.5" r="0.5" fill="#472b29"></circle><path d="M82,81h-3.5c-0.276,0 -0.5,-0.224 -0.5,-0.5c0,-0.276 0.224,-0.5 0.5,-0.5h3.5c1.654,0 3,-1.346 3,-3c0,-1.496 -1.125,-2.768 -2.618,-2.959c-0.134,-0.018 -0.255,-0.088 -0.336,-0.196c-0.081,-0.108 -0.115,-0.244 -0.094,-0.377c0.023,-0.154 0.048,-0.308 0.048,-0.468c0,-1.654 -1.346,-3 -3,-3c-0.85,0 -1.638,0.355 -2.219,1c-0.125,0.139 -0.321,0.198 -0.5,0.148c-0.182,-0.049 -0.321,-0.195 -0.36,-0.379c-0.341,-1.604 -1.78,-2.769 -3.421,-2.769c-1.93,0 -3.5,1.57 -3.5,3.5c0,0.143 0.021,0.28 0.041,0.418c0.029,0.203 -0.063,0.438 -0.242,0.54c-0.179,0.102 -0.396,0.118 -0.556,-0.01c-0.365,-0.293 -0.794,-0.448 -1.243,-0.448c-0.966,0 -1.792,0.691 -1.963,1.644c-0.048,0.267 -0.296,0.446 -0.569,0.405c-0.154,-0.024 -0.308,-0.049 -0.468,-0.049c-1.654,0 -3,1.346 -3,3c0,1.654 1.346,3 3,3h7.5c0.276,0 0.5,0.224 0.5,0.5c0,0.276 -0.224,0.5 -0.5,0.5h-7.5c-2.206,0 -4,-1.794 -4,-4c0,-2.206 1.794,-4 4,-4c0.059,0 0.116,0.002 0.174,0.006c0.414,-1.186 1.537,-2.006 2.826,-2.006c0.349,0 0.689,0.061 1.011,0.18c0.165,-2.333 2.115,-4.18 4.489,-4.18c1.831,0 3.466,1.127 4.153,2.774c0.68,-0.498 1.502,-0.774 2.347,-0.774c2.206,0 4,1.794 4,4c0,0.048 -0.001,0.095 -0.004,0.142c1.743,0.448 3.004,2.027 3.004,3.858c0,2.206 -1.794,4 -4,4z" fill="#472b29"></path><path d="M76.5,80c-0.159,0 -0.841,0 -1,0c-0.276,0 -0.5,0.224 -0.5,0.5c0,0.276 0.224,0.5 0.5,0.5c0.159,0 0.841,0 1,0c0.276,0 0.5,-0.224 0.5,-0.5c0,-0.276 -0.224,-0.5 -0.5,-0.5z" fill="#472b29"></path></g><g><path d="M67,56h-5.068l-6.6,-11l2.383,-3.971c0.568,-0.947 0.262,-2.176 -0.686,-2.744c-0.948,-0.568 -2.176,-0.262 -2.744,0.686l-1.285,2.142l-1.285,-2.142c-0.568,-0.947 -1.798,-1.253 -2.744,-0.686c-0.947,0.568 -1.254,1.797 -0.686,2.744l2.383,3.971l-6.6,11h-5.068c-1.104,0 -2,0.896 -2,2c0,1.104 0.896,2 2,2h2.668l-2.383,3.971c-0.568,0.947 -0.262,2.176 0.686,2.744c0.322,0.193 0.676,0.285 1.027,0.285c0.68,0 1.342,-0.346 1.717,-0.971l3.617,-6.029h13.335l3.617,6.029c0.376,0.625 1.038,0.971 1.718,0.971c0.351,0 0.705,-0.092 1.027,-0.285c0.947,-0.568 1.254,-1.797 0.686,-2.744l-2.383,-3.971h2.668c1.104,0 2,-0.896 2,-2c0,-1.104 -0.896,-2 -2,-2zM48.732,56l4.268,-7.113l4.268,7.113z" fill="#ffffff"></path><path d="M65.002,67.25c-0.799,0 -1.521,-0.408 -1.932,-1.092l-3.544,-5.908h-13.052l-3.544,5.908c-0.411,0.684 -1.133,1.092 -1.932,1.092c-0.406,0 -0.807,-0.111 -1.156,-0.321c-0.515,-0.309 -0.879,-0.801 -1.024,-1.384c-0.146,-0.583 -0.056,-1.188 0.253,-1.703l2.156,-3.592h-2.227c-1.24,0 -2.25,-1.009 -2.25,-2.25c0,-1.241 1.01,-2.25 2.25,-2.25h4.926l6.45,-10.75l-2.306,-3.842c-0.309,-0.515 -0.398,-1.12 -0.253,-1.703c0.146,-0.583 0.51,-1.074 1.024,-1.384c1.067,-0.638 2.449,-0.291 3.088,0.771l1.071,1.785l1.07,-1.785c0.64,-1.062 2.021,-1.409 3.088,-0.771c0.515,0.31 0.879,0.801 1.024,1.384c0.146,0.583 0.056,1.188 -0.253,1.703l-2.305,3.842l6.45,10.75h4.926c1.24,0 2.25,1.009 2.25,2.25c0,1.241 -1.01,2.25 -2.25,2.25h-2.227l2.156,3.592c0.309,0.515 0.398,1.12 0.253,1.703c-0.146,0.583 -0.51,1.074 -1.024,1.384c-0.349,0.21 -0.75,0.321 -1.156,0.321zM46.332,59.75h13.336c0.088,0 0.169,0.046 0.215,0.121l3.617,6.029c0.318,0.532 0.88,0.849 1.502,0.849c0.315,0 0.627,-0.086 0.898,-0.25c0.827,-0.496 1.097,-1.573 0.6,-2.401l-2.383,-3.971c-0.046,-0.077 -0.047,-0.173 -0.003,-0.252c0.045,-0.079 0.128,-0.127 0.218,-0.127h2.668c0.965,0 1.75,-0.785 1.75,-1.75c0,-0.965 -0.785,-1.75 -1.75,-1.75h-5.067c-0.088,0 -0.169,-0.046 -0.215,-0.121l-6.601,-11c-0.047,-0.079 -0.047,-0.178 0,-0.257l2.383,-3.971c0.497,-0.828 0.228,-1.905 -0.6,-2.401c-0.827,-0.495 -1.904,-0.228 -2.4,0.6l-1.285,2.142c-0.092,0.15 -0.338,0.15 -0.43,0l-1.285,-2.141c-0.496,-0.827 -1.575,-1.096 -2.4,-0.6c-0.827,0.496 -1.097,1.573 -0.6,2.401l2.383,3.971c0.047,0.079 0.047,0.178 0,0.257l-6.601,11c-0.046,0.075 -0.127,0.121 -0.215,0.121h-5.067c-0.965,0 -1.75,0.785 -1.75,1.75c0,0.965 0.785,1.75 1.75,1.75h2.668c0.09,0 0.173,0.048 0.218,0.127c0.044,0.078 0.043,0.175 -0.003,0.252l-2.383,3.971c-0.497,0.828 -0.228,1.905 0.6,2.401c0.271,0.163 0.583,0.25 0.898,0.25c0.622,0 1.184,-0.318 1.502,-0.849l3.617,-6.029c0.046,-0.076 0.127,-0.122 0.215,-0.122zM57.268,56.25h-8.535c-0.09,0 -0.173,-0.048 -0.218,-0.127c-0.044,-0.078 -0.043,-0.175 0.003,-0.252l4.268,-7.113c0.092,-0.15 0.338,-0.15 0.43,0l4.268,7.113c0.046,0.077 0.047,0.174 0.003,0.252c-0.047,0.079 -0.13,0.127 -0.219,0.127zM49.174,55.75h7.652l-3.826,-6.377z" fill="#472b29"></path><path d="M54.603,46.453c-0.044,0 -0.089,-0.011 -0.129,-0.036c-0.118,-0.071 -0.156,-0.225 -0.085,-0.343l0.71,-1.183c0.071,-0.119 0.225,-0.157 0.343,-0.086c0.118,0.071 0.156,0.225 0.085,0.343l-0.71,1.183c-0.047,0.079 -0.129,0.122 -0.214,0.122z" fill="#472b29"></path><path d="M52.938,49.229c-0.044,0 -0.088,-0.011 -0.129,-0.036c-0.118,-0.071 -0.156,-0.225 -0.086,-0.343l1.156,-1.927c0.07,-0.119 0.223,-0.157 0.344,-0.086c0.118,0.071 0.156,0.225 0.086,0.343l-1.156,1.927c-0.048,0.079 -0.131,0.122 -0.215,0.122z" fill="#472b29"></path><path d="M59.729,60.354c-0.084,0 -0.167,-0.043 -0.214,-0.12l-2.521,-4.146c-0.071,-0.118 -0.034,-0.272 0.084,-0.344c0.119,-0.071 0.272,-0.035 0.344,0.084l2.521,4.146c0.071,0.118 0.034,0.272 -0.084,0.344c-0.041,0.025 -0.085,0.036 -0.13,0.036z" fill="#472b29"></path><g fill="#472b29"><path d="M46.578,60.252h-5c-0.138,0 -0.25,-0.112 -0.25,-0.25c0,-0.138 0.112,-0.25 0.25,-0.25h5c0.138,0 0.25,0.112 0.25,0.25c0,0.138 -0.112,0.25 -0.25,0.25z"></path></g></g></g></g></svg>